<?xml version="1.0" standalone="no"?>
<!DOCTYPE svg PUBLIC "-//W3C//DTD SVG 20010904//EN"
 "http://www.w3.org/TR/2001/REC-SVG-20010904/DTD/svg10.dtd">
<svg version="1.0" xmlns="http://www.w3.org/2000/svg"
 width="313.000000pt" height="313.000000pt" viewBox="0 0 313.000000 313.000000"
 preserveAspectRatio="xMidYMid meet">
<metadata>
Created by potrace 1.11, written by Peter Selinger 2001-2013
</metadata>
<g transform="translate(0.000000,313.000000) scale(0.100000,-0.100000)"
fill="#000000" stroke="none">
<path d="M1340 3091 c-60 -45 -84 -49 -166 -27 -61 16 -71 12 -135 -55 -49
-51 -51 -52 -149 -49 -63 1 -86 -14 -120 -80 -25 -49 -51 -66 -115 -76 -73
-10 -101 -28 -116 -71 -28 -88 -45 -110 -101 -129 -94 -31 -101 -40 -113 -136
-7 -56 -26 -83 -75 -108 -66 -34 -82 -57 -80 -120 4 -96 2 -101 -49 -149 -66
-63 -71 -75 -55 -136 22 -82 18 -105 -26 -164 -22 -29 -40 -63 -40 -75 0 -13
11 -45 25 -72 31 -62 31 -90 -1 -160 -30 -67 -27 -88 22 -153 33 -42 35 -50
30 -91 -22 -150 -25 -134 38 -194 31 -30 57 -60 57 -68 1 -7 0 -42 -1 -76 -2
-72 14 -98 82 -133 46 -23 67 -54 73 -105 12 -99 19 -107 113 -138 56 -19 64
-29 98 -116 23 -61 42 -75 118 -85 68 -8 79 -16 121 -84 33 -55 39 -60 78 -66
23 -4 53 -5 67 -2 45 7 87 -12 121 -54 45 -58 80 -71 138 -53 79 24 120 14
178 -42 28 -27 71 -26 130 2 69 33 84 32 158 -2 67 -30 89 -27 153 22 50 38
77 41 157 20 61 -16 89 -5 132 50 34 45 73 63 125 57 78 -9 102 2 142 67 43
70 52 76 135 89 35 6 69 15 77 22 8 6 21 36 30 65 21 72 38 89 114 117 73 27
85 42 95 122 10 69 16 78 85 120 65 39 74 60 67 140 -6 57 9 90 55 127 57 44
70 79 52 137 -22 75 -18 102 26 161 22 29 40 62 40 72 0 11 -12 45 -27 76 -31
68 -31 83 2 153 13 30 25 63 25 75 0 11 -18 45 -40 74 -44 58 -50 95 -26 160
18 52 4 92 -49 135 -53 44 -59 60 -56 146 2 75 -2 83 -81 131 -58 36 -64 46
-77 127 -6 35 -15 69 -22 77 -6 7 -36 21 -66 31 -66 21 -95 48 -112 104 -24
80 -40 93 -131 104 -58 8 -71 16 -107 73 -50 78 -57 82 -133 79 -76 -4 -106 8
-144 57 -42 55 -71 66 -131 50 -78 -21 -103 -17 -154 20 -67 50 -91 53 -156
22 -67 -31 -93 -32 -148 -5 -74 37 -97 35 -157 -10z m85 -986 c1 -185 -3 -325
-8 -332 -5 -7 -17 -13 -26 -13 -9 0 -150 43 -313 97 l-297 96 27 46 c109 191
299 344 502 406 30 9 60 19 65 20 6 2 19 3 30 2 19 -2 19 -11 20 -322z m438
293 c182 -62 338 -184 449 -353 59 -88 59 -89 36 -98 -20 -8 -231 -76 -481
-157 -130 -42 -122 -63 -120 315 0 171 2 313 2 318 1 9 35 1 114 -25z m-1125
-768 c9 -5 139 -49 287 -97 247 -80 270 -90 270 -110 0 -13 -70 -120 -169
-257 l-169 -234 -39 45 c-141 163 -216 348 -223 552 -4 111 1 124 43 101z
m1716 -87 c-3 -139 -24 -226 -86 -363 -28 -61 -100 -169 -137 -204 -36 -34
-21 -47 -126 99 -35 50 -101 140 -146 200 -99 133 -108 151 -88 169 8 8 100
41 204 74 105 34 231 74 280 91 50 16 93 30 96 30 3 1 5 -43 3 -96z m-841
-340 c8 -10 50 -65 92 -123 42 -58 85 -116 95 -130 10 -14 45 -62 78 -107 l61
-81 -52 -21 c-181 -71 -399 -76 -589 -12 -38 12 -68 26 -68 31 0 5 10 21 23
37 13 15 87 117 166 226 93 128 149 197 160 197 10 0 25 -8 34 -17z"/>
</g>
</svg>
