<?xml version="1.0" encoding="utf-8"?>
<!-- Generator: Adobe Illustrator 15.0.0, SVG Export Plug-In . SVG Version: 6.00 Build 0)  -->
<!DOCTYPE svg PUBLIC "-//W3C//DTD SVG 1.1//EN" "http://www.w3.org/Graphics/SVG/1.1/DTD/svg11.dtd">
<svg version="1.1" id="Layer_1" xmlns="http://www.w3.org/2000/svg" xmlns:xlink="http://www.w3.org/1999/xlink" x="0px" y="0px"
	 width="210px" height="159px" viewBox="0 0 210 159" enable-background="new 0 0 210 159" xml:space="preserve">
<g>
	<g>
		<path fill="#6D6D6D" d="M85.278,136.392l0.011-0.027c1.196,0.508,2.579-0.041,3.101-1.234c0.521-1.193-0.016-2.58-1.201-3.113
			l0.006-0.014l-38.341-16.26l-0.958,3.37L85.278,136.392z"/>
		<path fill="#333333" d="M48.395,109.474c0.2-0.646,0.886-1.006,1.531-0.805l2.919,0.907c0.645,0.201,1.005,0.887,0.805,1.532
			l-4.42,14.204c-0.201,0.646-0.886,1.007-1.531,0.805l-2.919-0.908c-0.645-0.2-1.005-0.885-0.804-1.53L48.395,109.474z"/>
	</g>
	
		<rect x="51.463" y="9.042" transform="matrix(-0.9517 0.3071 -0.3071 -0.9517 112.43 33.426)" fill="#6D6D6D" width="4.246" height="33.032"/>
	<rect x="58" y="38" fill="#660828" width="106" height="5"/>
	<polygon fill="#660828" points="84.04,133.038 54.454,35.452 58.705,34.261 88.292,131.847 	"/>
	
		<rect x="69.765" y="90.515" transform="matrix(0.6989 -0.7152 0.7152 0.6989 -28.2253 118.6528)" fill="#660828" width="114.098" height="4.671"/>
	<path d="M28.751,0.194c-3.891-1.016-3.812,1.947-0.339,5.849s5.129,8.335,15.06,6.488s19.076-5.526,25.68-5.015
		c6.605,0.511,8.545-4.341,2.278-4.073c-6.267,0.268-16.019,1.233-26.035,0.141C35.38,2.492,32.522,1.179,28.751,0.194z"/>
	<circle fill="#660707" cx="86.314" cy="133.038" r="4.608"/>
	<path fill="#6D6D6D" d="M158.867,34.486c-0.115-0.371-2.83-9.1-3.433-11.853c-0.181-0.83,0.028-1.633,0.592-2.263
		c0.963-1.079,2.896-1.566,6.265-1.581c2.138-0.01,4.062,0.188,4.143,0.195l-0.333,3.209c-0.016-0.001-1.727-0.175-3.614-0.179
		c-2.273-0.005-3.336,0.24-3.789,0.399c0.75,3.073,3.226,11.027,3.252,11.112L158.867,34.486z"/>
	<path fill="#6D6D6D" d="M208.812,59.728"/>
	<circle fill="#C19108" cx="169.154" cy="19.571" r="4.246"/>
	<polygon fill="#660707" points="8.616,122.682 5.317,119.323 86.867,131.115 86.459,133.938 	"/>
	<path fill="#660828" d="M201.167,116.458c-3.852-2.186-17.883-14.303-24.235-35.577c-0.007-0.021-0.014-0.042-0.02-0.064
		l-14.579-48.612l-4.229,1.269l14.758,49.208c9.454,23.589,21.852,32.711,29.833,36.642c2.495,1.228,6.771,3.132,7.183,2.354
		C210.459,120.575,204.41,118.3,201.167,116.458z"/>
	<path fill="#C19108" d="M87.264,116.458c-9.474,0-17.152,7.681-17.152,17.153c0,9.474,7.679,17.153,17.152,17.153
		s17.152-7.68,17.152-17.153C104.417,124.139,96.738,116.458,87.264,116.458z M87.264,143.903c-5.684,0-10.292-4.607-10.292-10.292
		c0-5.684,4.607-10.292,10.292-10.292s10.292,4.608,10.292,10.292C97.556,139.296,92.948,143.903,87.264,143.903z"/>
	<g>
		<path fill="#6D6D6D" d="M87.724,131.229l-0.012,0.027c-1.195-0.507-2.579,0.041-3.101,1.233c-0.521,1.194,0.017,2.581,1.201,3.115
			l-0.006,0.013l38.34,16.26l0.958-3.37L87.724,131.229z"/>
		<path fill="#333333" d="M124.608,158.147c-0.201,0.646-0.887,1.005-1.53,0.805l-2.92-0.908c-0.644-0.2-1.004-0.886-0.805-1.53
			l4.419-14.205c0.201-0.646,0.887-1.006,1.53-0.806l2.92,0.909c0.645,0.199,1.005,0.885,0.805,1.531L124.608,158.147z"/>
	</g>
	<g>
		<path fill="#6D6D6D" d="M98.516,131.241c0.505-0.218,0.768-0.82,0.583-1.339l-0.439-1.236c-0.184-0.519-0.768-0.82-1.297-0.671
			l-7.286,2.052c-0.529,0.149-0.992-0.178-1.029-0.727l-0.497-7.385c-0.037-0.549-0.517-0.936-1.066-0.936h-1.312
			c-0.55,0-1.03,0.387-1.066,0.936l-0.496,7.418c-0.037,0.549-0.497,0.851-1.022,0.689l-7.044-2.162
			c-0.526-0.161-1.116,0.124-1.312,0.638l-0.466,1.224c-0.196,0.514,0.053,1.121,0.553,1.351l6.66,3.056
			c0.5,0.229,0.617,0.759,0.26,1.177l-4.713,5.53c-0.356,0.418-0.326,1.074,0.068,1.458l0.94,0.916
			c0.394,0.384,1.051,0.396,1.46,0.029l5.94-5.337c0.409-0.367,1.021-0.314,1.361,0.118l4.87,6.2
			c0.34,0.433,0.989,0.532,1.443,0.222l1.083-0.74c0.454-0.311,0.597-0.952,0.318-1.426l-3.976-6.743
			c-0.279-0.474-0.095-1.04,0.41-1.258L98.516,131.241z"/>
	</g>
	<polygon fill="#660828" points="7.037,121.004 5.815,117.797 59.013,42.818 61.341,44.465 	"/>
	<path fill="#660707" d="M5.815,117.797c-1.107,1.561-2.413,4.132,2.801,4.885c5.213,0.754,1.12-2.72,1.12-2.72l-2.264-0.105
		l0.361-1.194L5.815,117.797z"/>
	<path fill="#660828" d="M6.556,116.753c-0.507,0.715-2.937,1.546-3.968,1.979c-0.57,0.239-1.353,1.435,0.607,2.563
		c1.393,0.803,1.393,0.803,10.238,2.082c8.844,1.278-4.964-2.547-4.964-2.547l-2.654-1.001L6.556,116.753z"/>
</g>
</svg>
