<?xml version="1.0" encoding="utf-8"?>
<!-- Generator: Adobe Illustrator 15.0.0, SVG Export Plug-In . SVG Version: 6.00 Build 0)  -->
<!DOCTYPE svg PUBLIC "-//W3C//DTD SVG 1.1//EN" "http://www.w3.org/Graphics/SVG/1.1/DTD/svg11.dtd">
<svg version="1.1" id="Layer_1" xmlns="http://www.w3.org/2000/svg" xmlns:xlink="http://www.w3.org/1999/xlink" x="0px" y="0px"
	 width="336.462px" height="200px" viewBox="0 0 336.462 200" enable-background="new 0 0 336.462 200" xml:space="preserve">
<g>
	<path fill="#A57617" d="M336.461,100H0v61.674c0,7.493,5.915,13.566,13.407,13.566l128.017-0.003
		c14.142,0.096,25.89,10.102,28.725,23.422c2.842-13.357,14.666-23.381,28.859-23.423l124.907-0.003
		c6.941,0,12.565-5.844,12.565-12.785L336.461,100z"/>
</g>
<g>
	<path fill="#660828" d="M41.345,69.931c1.164,0,2.123,0.167,2.871,0.499c0.748,0.333,1.123,0.667,1.123,0.999v6.989
		c0,3.744-0.936,6.408-2.808,7.987c-1.873,1.582-4.555,2.372-8.05,2.372h-8.238c-7.238,0-10.858-3.452-10.858-10.359V12.77
		c0-3.744,0.915-6.469,2.746-8.174c1.829-1.705,4.534-2.56,8.112-2.56h8.238c3.495,0,6.177,0.812,8.05,2.435
		c1.872,1.622,2.808,4.265,2.808,7.925v5.991c0,0.249-0.375,0.5-1.123,0.749c-0.749,0.249-1.666,0.374-2.746,0.374
		c-1.166,0-2.102-0.104-2.808-0.312c-0.708-0.207-1.061-0.478-1.061-0.811v-5.991c0-1.164-0.312-2.141-0.936-2.933
		c-0.625-0.79-1.644-1.186-3.058-1.186h-6.49c-2.664,0-3.994,1.622-3.994,4.867v65.272c0,1.166,0.312,2.122,0.937,2.871
		c0.624,0.749,1.642,1.123,3.057,1.123h6.49c2.662,0,3.994-1.33,3.994-3.994v-6.989c0-0.25,0.332-0.562,0.999-0.936
		C39.265,70.118,40.179,69.931,41.345,69.931z"/>
	<path fill="#660828" d="M69.426,2.036c3.577,0,6.281,0.812,8.112,2.435c1.829,1.622,2.746,4.265,2.746,7.925v65.647
		c0,3.744-0.917,6.471-2.746,8.175c-1.831,1.706-4.536,2.558-8.112,2.558h-8.112c-3.578,0-6.303-0.811-8.175-2.434
		c-1.872-1.622-2.808-4.262-2.808-7.925V12.77c0-3.744,0.936-6.469,2.808-8.174c1.872-1.705,4.597-2.56,8.175-2.56H69.426z
		 M72.546,12.396c0-1.164-0.312-2.122-0.936-2.871c-0.625-0.749-1.644-1.123-3.058-1.123h-6.49c-1.332,0-2.33,0.458-2.995,1.373
		c-0.667,0.917-0.998,2.04-0.998,3.37v65.272c0,1.166,0.331,2.122,0.998,2.871c0.665,0.749,1.664,1.123,2.995,1.123h6.49
		c1.33,0,2.329-0.456,2.996-1.373c0.665-0.915,0.999-2.038,0.999-3.37V12.396z"/>
	<path fill="#660828" d="M120.595,3.285c0.166-0.499,0.769-0.936,1.81-1.31c1.04-0.375,2.391-0.562,4.056-0.562
		c1.664,0,3.058,0.208,4.182,0.624c1.123,0.418,1.684,0.958,1.684,1.623v84.243c0,0.333-0.312,0.667-0.936,0.999
		c-0.625,0.331-1.561,0.499-2.809,0.499c-1.248,0-2.246-0.167-2.995-0.499c-0.749-0.332-1.123-0.625-1.123-0.874V22.255
		c0-0.332-0.022-0.541-0.062-0.625c-0.043-0.082-0.105,0-0.187,0.25c-1.998,7.407-3.744,14.062-5.242,19.969
		c-0.667,2.496-1.311,4.973-1.934,7.426c-0.625,2.455-1.186,4.661-1.685,6.615c-0.499,1.956-0.917,3.537-1.248,4.743
		c-0.333,1.207-0.499,1.853-0.499,1.934c-0.167,0.417-0.543,0.77-1.124,1.061c-0.583,0.292-1.582,0.437-2.995,0.437
		c-1.416,0-2.434-0.145-3.058-0.437c-0.625-0.291-1.021-0.644-1.186-1.061c0-0.082-0.168-0.727-0.499-1.934
		c-0.333-1.206-0.749-2.787-1.248-4.743c-0.5-1.954-1.061-4.16-1.685-6.615c-0.625-2.454-1.27-4.93-1.935-7.426
		c-1.498-5.907-3.245-12.562-5.242-19.969c-0.084-0.332-0.125-0.207-0.125,0.375v65.771c0,0.25-0.375,0.542-1.123,0.874
		c-0.749,0.331-1.791,0.499-3.121,0.499c-1.248,0-2.184-0.167-2.808-0.499c-0.624-0.332-0.936-0.665-0.936-0.999V3.659
		c0-0.665,0.581-1.205,1.747-1.623c1.164-0.415,2.538-0.624,4.119-0.624c1.663,0,3.036,0.188,4.119,0.562
		c1.08,0.374,1.664,0.811,1.747,1.31l11.233,42.933L120.595,3.285z"/>
	<path fill="#660828" d="M172.637,3.285c0.167-0.499,0.769-0.936,1.811-1.31c1.04-0.375,2.391-0.562,4.056-0.562
		c1.664,0,3.059,0.208,4.181,0.624c1.123,0.418,1.685,0.958,1.685,1.623v84.243c0,0.333-0.312,0.667-0.935,0.999
		c-0.624,0.331-1.561,0.499-2.809,0.499s-2.245-0.167-2.996-0.499c-0.748-0.332-1.122-0.625-1.122-0.874V22.255
		c0-0.332-0.021-0.541-0.063-0.625c-0.041-0.082-0.104,0-0.187,0.25c-1.997,7.407-3.744,14.062-5.241,19.969
		c-0.667,2.496-1.311,4.973-1.936,7.426c-0.623,2.455-1.185,4.661-1.684,6.615c-0.5,1.956-0.917,3.537-1.248,4.743
		c-0.333,1.207-0.5,1.853-0.5,1.934c-0.168,0.417-0.542,0.77-1.123,1.061c-0.583,0.292-1.582,0.437-2.995,0.437
		c-1.416,0-2.434-0.145-3.058-0.437c-0.624-0.291-1.02-0.644-1.186-1.061c0-0.082-0.167-0.727-0.499-1.934
		c-0.334-1.206-0.749-2.787-1.249-4.743c-0.499-1.954-1.06-4.16-1.685-6.615c-0.624-2.454-1.269-4.93-1.934-7.426
		c-1.498-5.907-3.246-12.562-5.242-19.969c-0.084-0.332-0.125-0.207-0.125,0.375v65.771c0,0.25-0.375,0.542-1.123,0.874
		c-0.749,0.331-1.79,0.499-3.121,0.499c-1.247,0-2.183-0.167-2.808-0.499c-0.624-0.332-0.936-0.665-0.936-0.999V3.659
		c0-0.665,0.581-1.205,1.747-1.623c1.165-0.415,2.537-0.624,4.119-0.624c1.664,0,3.036,0.188,4.119,0.562
		c1.08,0.374,1.663,0.811,1.747,1.31l11.232,42.933L172.637,3.285z"/>
	<path fill="#660828" d="M220.687,77.918c0,3.744-0.917,6.49-2.746,8.237c-1.831,1.748-4.577,2.621-8.237,2.621h-8.236
		c-3.578,0-6.283-0.831-8.112-2.496c-1.832-1.663-2.746-4.325-2.746-7.987V2.661c0-0.331,0.374-0.625,1.122-0.874
		c0.75-0.249,1.624-0.374,2.621-0.374c0.999,0,1.894,0.125,2.685,0.374c0.789,0.25,1.186,0.583,1.186,0.999v75.507
		c0,1.166,0.332,2.122,0.998,2.871c0.665,0.749,1.704,1.123,3.12,1.123h6.615c1.33,0,2.327-0.457,2.995-1.373
		c0.665-0.915,0.998-2.038,0.998-3.37V2.661c0-0.331,0.332-0.625,0.999-0.874c0.664-0.249,1.578-0.374,2.745-0.374
		c1.165,0,2.122,0.125,2.871,0.374c0.749,0.25,1.123,0.583,1.123,0.999V77.918z"/>
	<path fill="#660828" d="M259.002,2.91c0.165,0.583,0.248,1.332,0.248,2.246c0,0.917-0.104,1.685-0.312,2.31
		c-0.208,0.624-0.521,0.936-0.936,0.936h-11.481c-0.418,0-0.625,0.25-0.625,0.749v78.876c0,0.417-0.498,0.749-1.498,0.999
		c-0.998,0.25-1.789,0.374-2.37,0.374c-0.668,0-1.479-0.062-2.435-0.187c-0.957-0.125-1.436-0.396-1.436-0.811V9.151
		c0-0.5-0.292-0.749-0.872-0.749h-11.358c-0.998,0-1.497-1.04-1.497-3.12c0-2.163,0.456-3.246,1.373-3.246h32.074
		C258.458,2.036,258.833,2.33,259.002,2.91z"/>
	<path fill="#660828" d="M286.83,82.91c0.251,0.333,0.375,1.207,0.375,2.621c0,1.332-0.124,2.206-0.375,2.621
		c-0.249,0.417-0.542,0.624-0.872,0.624l-21.968-0.125c-0.665,0-0.997-0.29-0.997-0.874V3.16c0-0.748,0.374-1.124,1.123-1.124
		h21.591c0.416,0,0.75,0.293,0.999,0.874c0.249,0.583,0.375,1.291,0.375,2.122c0,0.75-0.105,1.479-0.312,2.185
		c-0.209,0.707-0.521,1.061-0.936,1.061h-14.479c-0.499,0-0.748,0.249-0.748,0.749v31.45c0,0.499,0.207,0.75,0.624,0.75h13.229
		c0.25,0,0.519,0.187,0.812,0.562c0.29,0.374,0.437,1.27,0.437,2.683c0,1.416-0.146,2.309-0.437,2.684
		c-0.293,0.374-0.604,0.561-0.937,0.561H271.48c-0.583,0-0.874,0.333-0.874,0.999v32.823c0,0.583,0.291,0.874,0.874,0.874h14.353
		C286.248,82.411,286.581,82.579,286.83,82.91z"/>
	<path fill="#660828" d="M322.025,38.729c0,1.332-0.437,2.705-1.311,4.119c-0.874,1.416-2.145,2.122-3.807,2.122
		c1.662,0,2.933,0.583,3.807,1.748s1.311,2.371,1.311,3.619v37.691c0,0.915-1.248,1.373-3.744,1.373
		c-1.166,0-2.122-0.124-2.872-0.374c-0.748-0.25-1.122-0.582-1.122-0.999V50.835c0-0.666-0.104-1.227-0.312-1.685
		c-0.208-0.457-0.77-0.687-1.685-0.687h-11.481c-0.583,0-0.874,0.208-0.874,0.624v38.939c0,0.25-0.355,0.521-1.061,0.812
		c-0.709,0.291-1.646,0.437-2.808,0.437c-1.167,0-2.103-0.146-2.81-0.437c-0.707-0.291-1.061-0.603-1.061-0.936V2.91
		c0-0.581,0.331-0.874,0.999-0.874h20.093c2.912,0,5.096,0.958,6.553,2.871c1.454,1.915,2.185,3.994,2.185,6.24V38.729z
		 M310.792,41.974c2.328,0,3.495-1.165,3.495-3.495V12.021c0-0.915-0.271-1.747-0.812-2.496c-0.541-0.749-1.559-1.123-3.057-1.123
		h-9.609c-0.583,0-0.874,0.25-0.874,0.749v32.075c0,0.499,0.249,0.749,0.748,0.749H310.792z"/>
</g>
<g>
	<path fill="#825514" d="M170.104,185.278l-0.901-1.208c-1.3-1.74-2.773-3.373-4.381-4.854l1.525-1.656
		c1.347,1.242,2.607,2.584,3.757,4.003c1.149-1.419,2.411-2.761,3.761-4.002l1.523,1.658c-1.611,1.479-3.085,3.109-4.382,4.85
		L170.104,185.278z"/>
	<path fill="#825514" d="M153.014,172.104c-3.792-1.4-7.723-2.104-11.683-2.104H140v-2h1.338c4.23,0,8.418,0.648,12.456,2.141
		L153.014,172.104z M125,170h-14v-2h14V170z M97,170H83v-2h14V170z M69,170H54v-2h15V170z M40,170H26v-2h14V170z M10.739,169.672
		C6.906,168.754,4,165.391,4,161.674V158h3v3.674c0,2.688,1.744,5.131,4.576,5.809L10.739,169.672z M7,143H4v-15h3V143z"/>
	<polygon fill="#825514" points="7,115 4,115 4,107 12,107 12,109 7,109 	"/>
	<path fill="#825514" d="M310,109h-14v-2h14V109z M283,109h-14v-2h14V109z M255,109h-12v-2h12V109z M229,109h-14v-2h14V109z
		 M201,109h-12v-2h12V109z M175,109h-14v-2h14V109z M147,109h-13v-2h13V109z M121,109h-14v-2h14V109z M94,109H80v-2h14V109z M67,109
		H53v-2h14V109z M40,109H26v-2h14V109z"/>
	<polygon fill="#825514" points="330.897,114.789 328.648,114.652 328.836,109 323,109 323,107 331.165,107 	"/>
	<path fill="#825514" d="M186.906,172.177l-0.785-1.978c4.123-1.535,8.444-2.199,12.845-2.199h1.271l-0.002,2h-1.267
		C194.839,170,190.779,170.734,186.906,172.177z M312.178,170.035l-13.992-0.008l0.002-2.251l13.992,0.007L312.178,170.035z
		 M284.192,170.02l-13.993-0.008l0.002-2.251l13.993,0.008L284.192,170.02z M256.206,170.004l-13.992-0.008l0.002-2.251
		l13.993,0.008L256.206,170.004z M228.221,169.989l-13.993-0.008l0.002-2.251l13.993,0.007L228.221,169.989z M326.518,169.573
		l-0.788-2.108c1.919-0.719,3.16-2.588,3.16-4.611L328.887,156h2.251l0.003,6.854C331.141,165.826,329.325,168.522,326.518,169.573z
		 M328.884,143l-0.004-15h2.252l0.003,15H328.884z"/>
</g>
<g>
	<path fill="#FFFFFF" d="M25.844,152.664v-32.936h3.809c4.48,0,6.9,0.896,8.2,3.404c1.255,2.51,1.434,6.633,1.434,13.086
		s-0.179,10.529-1.434,13.039c-1.299,2.51-3.719,3.406-8.2,3.406H25.844z M30.683,147.824c1.658,0,2.599-0.18,3.092-1.791
		c0.225-0.762,0.404-1.928,0.448-3.496c0.045-1.568,0.045-3.676,0.045-6.363c0-2.689,0-4.795-0.045-6.363
		c-0.044-1.523-0.224-2.689-0.448-3.496c-0.493-1.566-1.434-1.746-3.092-1.746V147.824z"/>
	<path fill="#FFFFFF" d="M42.512,119.729h11.069v4.973h-6.229v8.648h4.481v5.287h-4.481v9.053h6.229v4.975H42.512V119.729z"/>
	<path fill="#FFFFFF" d="M64.29,128.557c0-1.076-0.045-2.287-0.359-3.227c-0.313-0.898-0.806-1.525-1.568-1.525
		c-1.254,0.047-1.657,1.346-1.657,3.273c0,1.119,0.493,2.285,1.209,3.539c0.717,1.256,1.658,2.555,2.599,3.943
		c1.121,1.658,2.241,3.359,3.092,5.018c0.851,1.658,1.434,3.361,1.434,5.154c0,2.195-0.359,4.256-1.389,5.781
		c-1.03,1.521-2.688,2.508-5.332,2.508c-3.092,0-4.839-1.164-5.825-2.957s-1.21-4.168-1.21-6.631l4.75-0.449
		c0,1.389,0.045,2.777,0.404,3.809c0.314,1.076,0.851,1.793,1.882,1.793c1.434,0,1.972-1.523,1.972-3.631
		c0-1.074-0.539-2.328-1.255-3.629c-0.404-0.627-0.807-1.299-1.255-1.971c-0.941-1.344-1.972-2.869-3.047-4.527
		c-1.075-1.656-1.882-3.359-2.375-5.107c-0.269-0.852-0.403-1.748-0.403-2.643c0-1.793,0.403-3.721,1.434-5.199
		c1.03-1.434,2.599-2.463,4.884-2.51c2.913-0.045,4.616,1.166,5.557,2.914c0.94,1.791,1.209,3.986,1.209,5.824L64.29,128.557z"/>
	<path fill="#FFFFFF" d="M71.637,119.729h4.839v32.936h-4.839V119.729z"/>
	<path fill="#FFFFFF" d="M87.813,131.557v-5.061c0-0.896-0.179-1.525-0.627-2.064c-0.224-0.223-0.582-0.357-0.986-0.357
		c-0.851,0-1.255,0.627-1.434,1.211c-0.135,0.357-0.179,0.762-0.179,1.211v19.805c0,0.941,0.224,1.568,0.672,2.061
		c0.224,0.225,0.538,0.359,0.941,0.359c0.851,0,1.254-0.539,1.435-1.211c0.134-0.312,0.179-0.717,0.179-1.209v-5.961h-1.927v-4.076
		h6.766v16.4h-2.868l-0.583-1.568c-0.896,1.119-2.196,1.926-3.764,1.926c-1.569,0-2.644-0.402-3.451-1.119
		c-0.806-0.672-1.344-1.525-1.703-2.42c-0.403-1.031-0.583-2.24-0.538-3.586v-19.4c0.045-1.301,0.314-2.51,0.807-3.543
		c0.403-0.895,0.985-1.793,1.882-2.463c0.896-0.672,2.151-1.121,3.764-1.121c1.613,0,2.823,0.449,3.719,1.121
		c0.896,0.67,1.524,1.568,1.927,2.463c0.492,1.033,0.761,2.242,0.806,3.543v5.061H87.813z"/>
	<path fill="#FFFFFF" d="M101.3,135.502l-0.403-1.525h-0.269v18.688h-4.437v-32.936h4.302l4.705,17.162l0.403,1.523h0.269v-18.686
		h4.437v32.936h-4.302L101.3,135.502z"/>
	<path fill="#FFFFFF" d="M127.737,152.664h-3.764l-4.437-32.936h4.481l1.927,17.117l0.089,1.074h0.358l0.135-1.074l2.061-17.117
		h3.496l2.061,17.117l0.134,1.074h0.359l0.09-1.074l1.926-17.117h4.481l-4.436,32.936h-3.763l-2.241-15.596l-0.269-1.926h-0.179
		l-0.27,1.926L127.737,152.664z"/>
	<path fill="#FFFFFF" d="M143.464,119.729h4.839v32.936h-4.839V119.729z"/>
	<path fill="#FFFFFF" d="M150.185,124.701v-4.973h13.981v4.973h-4.571v27.963h-4.839v-27.963H150.185z"/>
	<path fill="#FFFFFF" d="M174.65,138.324h-3.764v14.34h-4.839v-32.936h4.839v13.621h3.764v-13.621h4.839v32.936h-4.839V138.324z"/>
	<path fill="#FFFFFF" d="M189.975,152.664v-32.936h3.81c4.48,0,6.899,0.896,8.199,3.404c1.254,2.51,1.434,6.633,1.434,13.086
		s-0.18,10.529-1.434,13.039c-1.3,2.51-3.719,3.406-8.199,3.406H189.975z M194.813,147.824c1.659,0,2.6-0.18,3.092-1.791
		c0.224-0.762,0.404-1.928,0.449-3.496s0.045-3.676,0.045-6.363c0-2.689,0-4.795-0.045-6.363c-0.045-1.523-0.226-2.689-0.449-3.496
		c-0.492-1.566-1.433-1.746-3.092-1.746V147.824z"/>
	<path fill="#FFFFFF" d="M206.644,119.729h4.839v32.936h-4.839V119.729z"/>
	<path fill="#FFFFFF" d="M223.715,152.664l-2.51-13.891h-1.299v13.891h-4.84v-32.936h4.84c5.78,0,8.245,3.271,8.245,9.5
		c0,3.271-0.852,6.229-2.688,7.482l3.092,15.953H223.715z M219.906,134.291c0.673,0,1.569-0.09,2.285-0.715
		c0.717-0.629,1.3-1.84,1.3-4.168c0-2.33-0.583-3.586-1.3-4.213c-0.716-0.627-1.612-0.672-2.285-0.672V134.291z"/>
	<path fill="#FFFFFF" d="M231.243,119.729h11.067v4.973h-6.229v8.648h4.48v5.287h-4.48v9.053h6.229v4.975h-11.067V119.729z"/>
	<path fill="#FFFFFF" d="M257.589,141.371v4.525c-0.044,1.346-0.312,2.555-0.806,3.586c-0.403,0.895-1.031,1.748-1.927,2.42
		c-0.896,0.717-2.105,1.119-3.719,1.119s-2.867-0.402-3.764-1.119c-0.896-0.672-1.479-1.525-1.882-2.42
		c-0.493-1.031-0.763-2.24-0.808-3.586v-19.4c0.045-1.301,0.314-2.51,0.808-3.543c0.402-0.895,0.985-1.793,1.882-2.463
		c0.896-0.672,2.15-1.121,3.764-1.121s2.823,0.449,3.719,1.121c0.896,0.67,1.523,1.568,1.927,2.463
		c0.493,1.033,0.762,2.242,0.806,3.543v4.525h-4.525v-4.525c0-0.896-0.223-1.525-0.717-2.064c-0.224-0.223-0.627-0.357-1.12-0.357
		c-0.851,0-1.254,0.627-1.479,1.211c-0.135,0.357-0.179,0.762-0.224,1.211v19.4c0.045,0.941,0.312,1.568,0.762,2.062
		c0.224,0.223,0.538,0.357,0.94,0.357c1.031,0,1.436-0.537,1.658-1.209c0.135-0.314,0.179-0.717,0.179-1.211v-4.525H257.589z"/>
	<path fill="#FFFFFF" d="M258.799,124.701v-4.973h13.981v4.973h-4.57v27.963h-4.84v-27.963H258.799z"/>
	<path fill="#FFFFFF" d="M274.662,119.729h4.839v32.936h-4.839V119.729z"/>
	<path fill="#FFFFFF" d="M295.677,145.896c-0.045,1.346-0.314,2.555-0.807,3.586c-0.403,0.895-1.03,1.748-1.927,2.42
		c-0.896,0.717-2.106,1.119-3.719,1.119c-1.613,0-2.867-0.402-3.766-1.119c-0.896-0.672-1.478-1.525-1.882-2.42
		c-0.491-1.031-0.762-2.24-0.806-3.586v-19.4c0.044-1.301,0.314-2.51,0.806-3.543c0.404-0.895,0.986-1.793,1.882-2.463
		c0.898-0.672,2.152-1.121,3.766-1.121c1.612,0,2.822,0.449,3.719,1.121c0.896,0.67,1.523,1.568,1.927,2.463
		c0.492,1.033,0.762,2.242,0.807,3.543V145.896z M290.837,126.496c0-0.896-0.18-1.525-0.627-2.064
		c-0.224-0.223-0.582-0.357-0.985-0.357c-0.852,0-1.256,0.627-1.435,1.211c-0.134,0.357-0.179,0.762-0.179,1.211v19.4
		c0,0.941,0.224,1.568,0.673,2.062c0.223,0.223,0.536,0.357,0.94,0.357c0.851,0,1.254-0.537,1.433-1.209
		c0.135-0.314,0.18-0.717,0.18-1.211V126.496z"/>
	<path fill="#FFFFFF" d="M304.055,135.502l-0.403-1.525h-0.268v18.688h-4.437v-32.936h4.302l4.705,17.162l0.403,1.523h0.268v-18.686
		h4.437v32.936h-4.301L304.055,135.502z"/>
</g>
</svg>
