<?xml version="1.0" encoding="utf-8"?>
<!-- Generator: Adobe Illustrator 15.0.0, SVG Export Plug-In . SVG Version: 6.00 Build 0)  -->
<!DOCTYPE svg PUBLIC "-//W3C//DTD SVG 1.1//EN" "http://www.w3.org/Graphics/SVG/1.1/DTD/svg11.dtd">
<svg version="1.1" id="Layer_1" xmlns="http://www.w3.org/2000/svg" xmlns:xlink="http://www.w3.org/1999/xlink" x="0px" y="0px"
	 width="129.664px" height="129.664px" viewBox="0 0 129.664 129.664" enable-background="new 0 0 129.664 129.664"
	 xml:space="preserve">
<g>
	<circle cx="65.171" cy="65.014" r="4.817"/>
	<g>
		<path fill="#6D6D6D" d="M65.169,127.927c-8.517,0-16.779-1.668-24.56-4.959c-7.513-3.178-14.261-7.728-20.054-13.521
			c-5.793-5.794-10.344-12.541-13.521-20.055C3.743,81.611,2.075,73.35,2.075,64.832c0-8.517,1.668-16.779,4.959-24.561
			c3.178-7.514,7.728-14.262,13.521-20.055S33.096,9.874,40.609,6.696c7.781-3.291,16.043-4.959,24.56-4.959
			S81.95,3.405,89.73,6.696c7.514,3.178,14.26,7.727,20.054,13.52s10.343,12.541,13.521,20.055
			c3.292,7.781,4.958,16.043,4.958,24.561c0,8.518-1.666,16.779-4.958,24.561c-3.179,7.514-7.728,14.261-13.521,20.055
			c-5.794,5.793-12.54,10.343-20.054,13.521C81.95,126.259,73.687,127.927,65.169,127.927z M65.169,7.311
			c-31.717,0-57.521,25.804-57.521,57.521c0,31.718,25.804,57.521,57.521,57.521c31.718,0,57.522-25.803,57.522-57.521
			C122.691,33.115,96.888,7.311,65.169,7.311z"/>
		<circle fill="#6D6D6D" cx="65.17" cy="64.832" r="4.885"/>
		<path fill="#6D6D6D" d="M66.272,4.535"/>
		<polygon fill="#6D6D6D" points="44.934,121.826 44.528,121.709 60.994,64.981 65.218,5.626 65.64,5.656 61.412,65.056 
			61.406,65.078 		"/>
		<polygon fill="#6D6D6D" points="55.057,124.367 54.641,124.295 65.221,62.979 75.046,7.175 75.462,7.249 65.636,63.053 		"/>
		<polygon fill="#6D6D6D" points="65.288,124.784 64.867,124.755 69.002,64.795 69.007,64.773 85.059,9.939 85.465,10.058 
			69.419,64.869 		"/>
		<g>
			<polygon fill="#6D6D6D" points="44.934,121.826 44.528,121.709 60.994,64.981 65.218,5.626 65.64,5.656 61.412,65.056 
				61.406,65.078 			"/>
			<polygon fill="#6D6D6D" points="55.057,124.367 54.641,124.295 65.221,62.979 75.046,7.175 75.462,7.249 65.636,63.053 			"/>
			<polygon fill="#6D6D6D" points="65.288,124.784 64.867,124.755 69.002,64.795 69.007,64.773 85.059,9.939 85.465,10.058 
				69.419,64.869 			"/>
		</g>
		<g>
			<polygon fill="#6D6D6D" points="75.518,124.396 61.364,67.048 35.297,13.556 35.676,13.372 61.762,66.904 61.768,66.925 
				75.927,124.295 			"/>
			<polygon fill="#6D6D6D" points="85.565,121.571 64.019,63.201 44.58,9.977 44.976,9.832 64.415,63.055 85.961,121.426 			"/>
			<polygon fill="#6D6D6D" points="94.646,116.85 68.2,62.877 68.196,62.855 54.63,7.355 55.041,7.255 68.6,62.732 95.027,116.663 
							"/>
		</g>
		<g>
			<polygon fill="#6D6D6D" points="103.525,111.342 62.705,68.645 13.474,35.222 13.712,34.872 62.979,68.321 62.995,68.338 
				103.831,111.05 			"/>
			<polygon fill="#6D6D6D" points="110.835,103.89 63.095,63.985 19.744,27.497 20.015,27.174 63.365,63.663 111.105,103.566 			"/>
			<polygon fill="#6D6D6D" points="116.361,95.274 66.561,61.625 66.545,61.608 27.157,20.221 27.463,19.93 66.835,61.3 
				116.596,94.925 			"/>
		</g>
		<g>
			<polygon fill="#6D6D6D" points="121.678,85.836 64.951,69.366 5.595,65.14 5.626,64.718 65.025,68.948 65.046,68.955 
				121.795,85.431 			"/>
			<polygon fill="#6D6D6D" points="124.264,75.724 62.949,65.14 7.145,55.313 7.219,54.896 63.022,64.724 124.337,75.308 			"/>
			<polygon fill="#6D6D6D" points="124.726,65.499 64.765,61.359 64.742,61.354 9.911,45.298 10.029,44.894 64.84,60.941 
				124.754,65.076 			"/>
		</g>
		<g>
			<polygon fill="#6D6D6D" points="14.159,95.608 13.97,95.23 67.153,68.442 67.176,68.437 124.355,53.522 124.462,53.931 
				67.304,68.84 			"/>
			<polygon fill="#6D6D6D" points="10.458,86.373 10.308,85.979 63.271,65.841 121.352,43.527 121.503,43.921 63.421,66.234 			"/>
			<polygon fill="#6D6D6D" points="7.704,76.357 7.598,75.948 62.894,61.66 116.472,34.525 116.662,34.902 63.043,62.057 			"/>
		</g>
		<g>
			<polygon fill="#6D6D6D" points="37.059,117.358 36.703,117.131 68.721,66.921 68.737,66.905 110.258,24.859 110.558,25.155 
				69.052,67.186 			"/>
			<polygon fill="#6D6D6D" points="29.156,111.313 28.825,111.051 64.052,66.669 102.567,17.802 102.898,18.063 64.383,66.931 			
				"/>
			<polygon fill="#6D6D6D" points="21.67,104.111 21.37,103.814 61.591,63.271 93.771,12.561 94.128,12.787 61.923,63.535 
				61.908,63.55 			"/>
		</g>
	</g>
	<path fill="#333333" d="M64.832,129.664c-8.751,0-17.242-1.715-25.237-5.097c-7.72-3.266-14.654-7.939-20.606-13.893
		c-5.954-5.953-10.628-12.886-13.893-20.607C1.715,82.074,0,73.583,0,64.832c0-8.751,1.715-17.241,5.097-25.237
		c3.265-7.72,7.939-14.654,13.893-20.606c5.952-5.954,12.886-10.628,20.606-13.893C47.59,1.715,56.081,0,64.832,0
		c8.751,0,17.241,1.715,25.236,5.097c7.721,3.265,14.652,7.939,20.606,13.893c5.954,5.952,10.627,12.886,13.892,20.606
		c3.383,7.996,5.098,16.485,5.098,25.237c0,8.751-1.715,17.242-5.098,25.235c-3.265,7.722-7.938,14.654-13.892,20.607
		s-12.886,10.627-20.606,13.893C82.073,127.949,73.583,129.664,64.832,129.664z M64.832,5.13C31.912,5.13,5.13,31.912,5.13,64.832
		s26.782,59.7,59.702,59.7s59.7-26.78,59.7-59.7S97.752,5.13,64.832,5.13z"/>
</g>
</svg>
